<?xml version="1.0" encoding="UTF-8" standalone="no"?>
<svg
   xmlns:dc="http://purl.org/dc/elements/1.1/"
   xmlns:cc="http://creativecommons.org/ns#"
   xmlns:rdf="http://www.w3.org/1999/02/22-rdf-syntax-ns#"
   xmlns:svg="http://www.w3.org/2000/svg"
   xmlns="http://www.w3.org/2000/svg"
   xmlns:sodipodi="http://sodipodi.sourceforge.net/DTD/sodipodi-0.dtd"
   xmlns:inkscape="http://www.inkscape.org/namespaces/inkscape"
   inkscape:version="1.0 (4035a4fb49, 2020-05-01)"
   sodipodi:docname="delicon.svg"
   xml:space="preserve"
   style="enable-background:new 0 0 612 612;"
   viewBox="0 0 612 612"
   y="0px"
   x="0px"
   id="Capa_1"
   version="1.1"><metadata
   id="metadata45"><rdf:RDF><cc:Work
       rdf:about=""><dc:format>image/svg+xml</dc:format><dc:type
         rdf:resource="http://purl.org/dc/dcmitype/StillImage" /></cc:Work></rdf:RDF></metadata><defs
   id="defs43" /><sodipodi:namedview
   inkscape:current-layer="Capa_1"
   inkscape:window-maximized="1"
   inkscape:window-y="-8"
   inkscape:window-x="1912"
   inkscape:cy="306"
   inkscape:cx="306"
   inkscape:zoom="0.87908497"
   showgrid="false"
   id="namedview41"
   inkscape:window-height="705"
   inkscape:window-width="1366"
   inkscape:pageshadow="2"
   inkscape:pageopacity="0"
   guidetolerance="10"
   gridtolerance="10"
   objecttolerance="10"
   borderopacity="1"
   bordercolor="#666666"
   pagecolor="#ffffff" />
<g
   style="fill:#aa0000"
   id="g8">
	<g
   style="fill:#aa0000"
   id="g6">
		<path
   style="fill:#aa0000"
   id="path2"
   d="M493.816,170.804H118.189c-11.367,0-20.582,9.214-20.582,20.58v321.509c0,54.648,44.461,99.107,99.105,99.107h218.574    c54.646,0,99.107-44.459,99.107-99.107V191.384C514.394,180.019,505.183,170.804,493.816,170.804z M256.526,488.043    c0,13.963-11.32,25.284-25.286,25.284c-13.961,0-25.286-11.321-25.286-25.284V294.76c0-13.965,11.323-25.284,25.286-25.284    c13.965,0,25.286,11.32,25.286,25.284V488.043z M406.047,488.043c0,13.963-11.32,25.284-25.286,25.284    c-13.961,0-25.286-11.321-25.286-25.284V294.76c0-13.965,11.323-25.284,25.286-25.284c13.965,0,25.286,11.32,25.286,25.284    V488.043z" />
		<path
   style="fill:#aa0000"
   id="path4"
   d="M473.195,32.022h-89.654v-7.775C383.541,10.877,372.666,0,359.297,0H252.706c-13.37,0-24.247,10.877-24.247,24.247v7.775    h-89.654c-34.33,0-62.261,27.929-62.261,62.26v39.924c0,7.14,5.788,12.929,12.931,12.929h433.054    c7.138,0,12.927-5.789,12.927-12.929V94.282C535.456,59.952,507.527,32.022,473.195,32.022z" />
	</g>
</g>
<g
   id="g10">
</g>
<g
   id="g12">
</g>
<g
   id="g14">
</g>
<g
   id="g16">
</g>
<g
   id="g18">
</g>
<g
   id="g20">
</g>
<g
   id="g22">
</g>
<g
   id="g24">
</g>
<g
   id="g26">
</g>
<g
   id="g28">
</g>
<g
   id="g30">
</g>
<g
   id="g32">
</g>
<g
   id="g34">
</g>
<g
   id="g36">
</g>
<g
   id="g38">
</g>
</svg>
